<?xml version="1.0" encoding="UTF-8" ?>
<!DOCTYPE svg PUBLIC "-//W3C//DTD SVG 1.1//EN" "http://www.w3.org/Graphics/SVG/1.1/DTD/svg11.dtd">
<svg width="1023pt" height="977pt" viewBox="0 0 1023 977" version="1.1" xmlns="http://www.w3.org/2000/svg">
<path fill="#c0c0c0" d=" M 721.47 900.40 C 717.74 902.49 714.02 904.73 709.92 906.03 C 707.98 906.34 707.65 903.81 706.98 902.56 C 693.65 862.59 682.91 821.68 676.46 780.02 C 674.96 765.70 672.25 751.48 672.05 737.05 C 670.89 726.40 671.78 715.67 671.45 704.98 C 672.17 684.29 675.26 663.61 681.31 643.78 C 688.30 622.56 699.21 602.09 715.77 586.79 C 719.05 583.27 722.61 580.05 726.30 576.98 C 732.29 571.16 738.07 565.13 744.05 559.30 C 756.15 546.35 766.76 531.91 774.77 516.07 C 777.96 508.62 781.44 501.18 782.89 493.14 C 784.57 486.53 785.09 479.71 785.90 472.98 C 785.29 470.01 784.88 467.02 784.88 464.00 C 783.56 454.03 780.46 444.26 775.22 435.64 C 773.80 433.42 771.77 431.53 770.97 428.98 C 771.20 425.96 772.12 423.01 771.99 419.95 C 771.04 408.96 769.83 397.77 765.55 387.48 C 761.70 377.65 754.86 369.09 746.31 362.93 C 744.37 361.84 743.65 359.73 743.07 357.72 C 740.24 348.26 733.23 339.86 723.88 336.36 C 718.55 333.94 712.63 333.84 706.92 333.33 C 697.63 333.30 688.33 333.36 679.04 333.34 C 644.81 331.73 611.28 321.41 581.09 305.40 C 567.12 298.95 554.69 289.55 540.42 283.71 C 531.60 279.69 522.39 276.39 512.89 274.43 C 504.71 272.56 496.40 270.78 487.97 271.02 C 483.00 270.01 478.05 271.32 473.06 271.11 C 453.12 272.92 433.74 279.12 415.90 288.12 C 409.87 291.16 404.22 295.07 397.77 297.19 C 396.17 295.90 395.76 293.76 394.97 291.97 C 390.33 279.21 384.86 266.78 379.52 254.30 C 373.93 243.49 369.29 232.03 361.60 222.47 C 359.75 220.71 357.80 218.22 355.11 218.08 C 351.68 220.06 351.43 224.44 350.77 227.93 C 349.61 239.05 347.70 250.09 346.82 261.25 C 345.87 270.87 344.43 280.43 343.10 290.00 C 341.52 305.33 339.48 320.61 337.02 335.82 C 324.72 345.08 312.98 355.44 304.15 368.15 C 302.76 370.38 301.08 372.41 299.09 374.13 C 296.15 373.20 293.05 372.56 290.41 370.89 C 270.82 358.46 253.05 342.99 231.78 333.34 C 223.83 330.52 215.09 326.44 206.64 329.73 C 199.04 331.86 194.77 339.46 192.73 346.55 C 191.10 353.25 189.66 360.11 190.00 367.04 C 190.24 374.72 189.36 382.48 190.79 390.07 C 193.37 422.96 201.96 454.94 209.06 487.04 C 213.76 507.58 217.76 528.29 221.15 549.08 C 222.50 560.44 225.00 571.63 225.80 583.05 C 226.69 592.71 227.84 602.34 228.27 612.02 C 230.01 619.63 228.14 627.51 229.48 635.18 C 230.24 639.68 230.21 644.31 229.42 648.81 C 228.26 655.49 229.90 662.35 228.30 668.98 C 226.94 690.24 223.20 711.41 216.78 731.75 C 211.63 748.48 204.16 764.41 195.93 779.82 C 193.24 783.71 191.92 788.71 188.05 791.67 C 185.40 791.35 184.37 787.99 182.59 786.24 C 141.62 734.23 112.95 672.61 99.79 607.71 C 97.12 597.20 96.32 586.35 94.35 575.71 C 92.87 562.85 91.61 549.92 91.74 536.97 C 90.37 528.37 91.19 519.63 91.02 510.97 C 91.74 506.04 91.96 501.07 91.75 496.09 C 92.48 485.33 93.07 474.53 94.67 463.85 C 96.51 453.95 97.27 443.87 99.72 434.09 C 109.84 383.96 129.34 335.80 156.44 292.45 C 175.82 261.70 199.01 233.36 225.30 208.30 C 242.70 192.42 260.92 177.31 280.60 164.28 C 309.37 144.77 340.61 129.00 373.24 117.06 C 394.57 109.08 416.70 103.48 438.98 98.90 C 456.85 95.98 474.78 92.78 492.93 92.43 C 498.24 91.66 503.60 91.80 508.95 91.85 C 522.30 92.12 535.71 91.17 549.01 92.51 C 559.72 92.69 570.39 93.93 580.96 95.67 C 663.19 106.81 741.62 143.24 803.80 198.13 C 809.06 203.22 814.95 207.61 819.91 213.03 C 825.26 218.68 831.30 223.70 836.07 229.88 C 855.24 250.17 871.95 272.76 886.64 296.49 C 891.00 304.12 895.78 311.52 899.59 319.45 C 902.17 324.60 905.51 329.36 907.45 334.83 C 926.30 373.98 939.12 416.08 945.12 459.13 C 946.65 471.09 948.11 483.05 948.95 495.07 C 948.52 501.07 949.97 507.00 949.66 513.01 C 949.45 522.33 950.15 531.69 948.95 540.96 C 949.38 547.34 948.02 553.59 947.90 559.95 C 946.03 573.34 945.14 586.89 942.29 600.13 C 935.05 638.58 922.86 676.21 905.14 711.13 C 884.12 754.56 855.09 793.97 820.79 827.80 C 791.31 856.46 757.83 881.13 721.47 900.40 Z" />
</svg>
