<?xml version="1.0" encoding="UTF-8" ?>
<!DOCTYPE svg PUBLIC "-//W3C//DTD SVG 1.1//EN" "http://www.w3.org/Graphics/SVG/1.1/DTD/svg11.dtd">
<svg width="1000pt" height="1000pt" viewBox="0 0 1000 1000" version="1.1" xmlns="http://www.w3.org/2000/svg">
<path fill="#4abfa1" d=" M 444.29 79.92 C 445.34 78.22 447.10 77.79 448.97 77.97 C 483.61 78.08 518.26 77.90 552.91 78.07 C 553.44 78.51 554.50 79.39 555.03 79.83 C 562.39 80.22 569.78 79.89 577.16 80.00 C 577.17 81.32 577.18 82.65 577.20 83.97 C 582.31 83.97 587.44 83.97 592.56 83.98 C 593.00 84.47 593.89 85.45 594.33 85.94 C 598.16 85.91 601.98 85.90 605.82 85.97 C 607.05 87.31 607.80 89.80 609.98 89.72 C 613.19 89.97 616.42 89.81 619.65 89.81 C 620.64 91.11 621.67 92.40 622.66 93.71 C 625.60 93.70 628.53 93.70 631.48 93.70 C 632.01 94.64 632.56 95.59 633.12 96.53 C 635.87 96.97 638.61 97.48 641.38 97.80 C 641.58 98.24 641.97 99.12 642.17 99.55 C 645.24 99.54 648.31 99.54 651.39 99.54 C 651.41 100.83 651.44 102.13 651.47 103.42 C 654.69 103.42 657.91 103.43 661.14 103.43 C 661.15 104.40 661.17 106.35 661.19 107.32 C 663.34 107.32 665.49 107.31 667.65 107.29 C 668.04 107.78 668.81 108.76 669.20 109.25 C 671.16 109.26 673.13 109.28 675.10 109.31 C 676.03 110.48 676.83 111.85 678.08 112.75 C 680.51 113.25 683.02 113.33 685.50 113.66 C 685.52 114.44 685.57 116.00 685.59 116.78 C 687.93 117.05 690.60 116.77 692.35 118.68 C 694.67 118.99 697.02 119.26 699.34 119.67 C 699.31 120.50 699.26 122.17 699.23 123.00 C 700.76 123.00 702.30 122.99 703.85 122.99 C 704.36 124.32 704.89 125.65 705.42 126.98 C 707.27 126.96 709.12 126.93 710.98 126.92 C 711.01 127.42 711.06 128.43 711.09 128.93 C 712.59 128.91 714.11 128.89 715.63 128.87 C 716.18 130.19 716.76 131.50 717.33 132.82 C 719.45 132.79 721.58 132.78 723.72 132.76 C 723.73 134.05 723.75 135.35 723.77 136.64 C 724.88 136.65 726.00 136.65 727.13 136.66 C 727.78 137.32 728.45 137.99 729.12 138.65 C 729.89 138.63 731.42 138.58 732.19 138.56 C 733.00 139.86 733.81 141.16 734.63 142.46 C 735.84 142.48 737.06 142.51 738.30 142.53 C 738.31 143.82 738.34 145.11 738.38 146.40 C 740.00 146.39 741.63 146.38 743.28 146.37 C 745.71 149.37 748.92 151.62 752.68 152.62 C 753.19 153.59 753.70 154.56 754.23 155.53 C 756.54 156.23 758.05 158.04 759.34 159.99 C 760.04 159.99 761.45 160.00 762.15 160.00 C 762.81 160.64 763.48 161.29 764.16 161.94 C 764.80 161.99 766.07 162.07 766.71 162.12 C 766.70 163.41 766.70 164.70 766.71 165.99 C 768.32 166.00 769.94 166.00 771.57 166.00 C 771.56 167.29 771.56 168.57 771.57 169.86 C 772.83 169.88 774.11 169.91 775.39 169.93 C 775.42 170.31 775.48 171.07 775.50 171.45 C 778.04 171.68 780.32 172.59 780.89 175.33 C 783.13 175.61 785.02 176.73 785.76 178.97 C 786.39 179.88 787.07 180.76 787.79 181.61 C 788.27 181.59 789.23 181.53 789.72 181.50 C 790.27 182.84 790.85 184.18 791.42 185.52 C 792.38 185.51 793.36 185.50 794.35 185.49 C 794.80 188.56 797.65 189.22 800.18 189.86 C 800.52 190.86 800.86 191.87 801.21 192.88 C 805.07 195.52 809.01 198.40 811.31 202.59 C 813.62 203.82 815.97 204.98 818.37 206.06 C 818.42 206.62 818.52 207.72 818.57 208.27 C 818.94 209.40 819.30 210.53 819.66 211.66 C 819.97 211.97 820.58 212.59 820.89 212.90 C 821.72 212.89 823.38 212.87 824.21 212.86 C 824.25 213.39 824.33 214.45 824.37 214.98 C 826.82 217.48 828.76 220.40 830.54 223.39 C 831.68 223.88 832.82 224.37 833.99 224.86 C 834.01 226.08 834.05 227.31 834.10 228.54 C 834.77 228.51 836.13 228.45 836.80 228.41 C 837.72 230.24 838.65 232.09 839.71 233.85 C 840.86 234.14 842.00 234.50 843.13 234.91 C 843.68 236.19 843.94 237.57 844.33 238.91 C 845.47 239.44 846.62 239.97 847.78 240.50 C 847.76 241.59 847.76 242.69 847.76 243.79 C 848.25 244.19 849.22 244.97 849.71 245.37 C 849.71 246.02 849.71 247.33 849.72 247.98 C 850.68 247.99 852.62 248.00 853.59 248.01 C 853.57 249.18 853.57 250.37 853.57 251.55 C 854.89 251.95 856.21 252.36 857.54 252.78 C 857.51 254.01 857.49 255.25 857.48 256.49 C 858.45 257.37 859.41 258.26 860.40 259.15 C 860.41 259.77 860.44 261.01 860.45 261.63 C 861.17 261.65 862.60 261.68 863.32 261.70 C 863.32 262.88 863.32 264.06 863.33 265.25 C 864.63 265.79 865.94 266.34 867.26 266.88 C 867.22 268.30 867.20 269.71 867.19 271.14 C 868.39 271.99 869.60 272.85 870.83 273.69 C 870.99 274.11 871.30 274.95 871.45 275.37 C 873.53 277.02 872.99 279.75 873.25 282.07 C 874.49 282.09 875.74 282.12 877.00 282.14 C 876.99 283.42 876.99 284.69 877.00 285.97 C 878.30 286.00 879.62 286.03 880.94 286.07 C 880.96 287.86 880.99 289.65 881.04 291.44 C 881.66 292.47 882.30 293.50 882.94 294.53 C 882.95 295.62 882.96 296.71 882.99 297.80 C 884.28 297.81 885.57 297.83 886.88 297.85 C 886.83 299.31 886.79 300.77 886.76 302.23 C 888.03 303.30 889.32 304.35 890.64 305.39 C 890.73 306.43 890.84 307.48 890.97 308.53 C 892.05 310.47 892.66 312.60 893.07 314.79 C 894.08 315.22 895.09 315.68 896.10 316.18 C 896.48 317.74 896.57 319.36 896.74 320.96 C 897.94 321.93 899.16 322.87 900.40 323.81 C 900.44 325.26 900.52 326.72 900.60 328.17 C 901.53 329.87 902.25 331.66 902.82 333.51 C 903.63 334.08 904.46 334.64 905.30 335.21 C 906.53 337.76 906.32 340.64 906.35 343.40 C 907.58 343.92 908.81 344.45 910.06 344.98 C 910.29 347.52 909.59 350.63 911.96 352.41 C 912.01 353.11 912.13 354.52 912.19 355.23 C 912.67 355.31 913.62 355.48 914.09 355.57 C 914.10 356.80 914.13 358.04 914.17 359.29 C 917.19 361.15 915.73 364.95 916.04 367.84 C 917.34 368.79 918.65 369.73 920.00 370.64 C 919.99 373.19 920.00 375.74 920.04 378.29 C 921.32 379.94 922.54 381.64 923.77 383.34 C 924.01 385.55 923.75 388.15 925.80 389.64 C 925.94 393.17 925.92 396.71 925.94 400.25 C 927.22 400.28 928.50 400.31 929.80 400.35 C 930.41 404.80 928.14 410.36 931.58 413.94 C 931.64 414.38 931.74 415.26 931.80 415.70 C 932.28 416.11 933.25 416.93 933.73 417.34 C 933.70 420.60 933.69 423.86 933.68 427.12 C 934.34 427.83 935.00 428.54 935.67 429.26 C 935.63 434.23 935.64 439.20 935.65 444.18 C 936.62 444.20 938.54 444.24 939.51 444.26 C 939.62 452.41 939.38 460.57 939.65 468.73 C 940.73 469.90 941.74 471.23 941.49 472.96 C 941.47 505.31 941.48 537.66 941.48 570.01 C 940.99 570.41 940.02 571.21 939.54 571.62 C 939.54 578.57 939.50 585.53 939.57 592.50 C 938.24 593.08 936.92 593.66 935.62 594.26 C 935.66 600.10 935.62 605.94 935.68 611.79 C 935.18 612.04 934.18 612.54 933.69 612.79 C 933.70 616.99 933.69 621.20 933.72 625.41 C 932.44 625.95 931.15 626.45 929.98 627.17 C 929.57 630.91 929.83 634.69 929.82 638.45 C 928.50 638.98 927.21 639.52 925.92 640.06 C 925.91 643.79 925.91 647.53 925.93 651.27 C 925.44 651.33 924.47 651.46 923.99 651.53 C 923.96 653.88 923.96 656.25 923.96 658.62 C 922.63 659.63 921.33 660.67 920.02 661.68 C 919.99 664.78 919.99 667.88 920.00 670.98 C 918.66 670.99 917.34 671.00 916.03 671.02 C 916.02 673.69 916.02 676.36 915.99 679.04 C 913.09 680.61 912.51 683.88 911.68 686.77 C 909.68 688.70 910.26 691.60 910.06 694.10 C 908.79 694.61 907.55 695.14 906.30 695.67 C 906.29 697.88 906.27 700.10 906.25 702.33 C 903.43 703.80 902.34 706.79 902.09 709.79 C 901.66 710.20 900.81 711.03 900.38 711.44 C 900.44 713.08 900.50 714.72 900.59 716.38 C 899.22 717.03 897.86 717.69 896.50 718.36 C 896.54 720.00 896.57 721.65 896.62 723.32 C 895.40 723.87 894.20 724.44 893.01 725.02 C 892.13 728.38 891.03 731.68 890.41 735.12 C 889.22 735.64 888.03 736.17 886.86 736.72 C 886.83 738.54 886.82 740.37 886.81 742.21 C 885.55 742.21 884.29 742.22 883.05 742.25 C 882.98 743.00 882.85 744.51 882.78 745.27 C 881.89 747.29 881.15 749.38 880.61 751.53 C 879.38 752.40 878.18 753.31 876.99 754.23 C 877.00 754.82 877.02 756.01 877.03 756.61 C 875.73 757.15 874.45 757.71 873.18 758.27 C 873.01 760.03 873.25 761.90 872.66 763.60 C 871.23 765.49 869.28 766.90 867.44 768.36 C 867.21 770.50 867.00 772.66 866.66 774.80 C 862.18 776.01 860.37 780.58 857.61 783.81 C 857.54 784.90 857.48 786.01 857.44 787.12 C 856.49 787.13 854.58 787.14 853.62 787.14 C 853.61 788.41 853.61 789.68 853.61 790.97 C 852.89 790.99 851.43 791.05 850.71 791.07 C 850.70 791.70 850.68 792.95 850.67 793.58 C 849.78 794.43 848.90 795.30 848.04 796.17 C 847.59 797.72 847.12 799.27 846.65 800.83 C 846.12 800.87 845.07 800.97 844.54 801.01 C 843.91 803.16 842.51 804.77 840.31 805.36 C 839.07 807.08 837.88 808.85 836.72 810.64 C 836.04 810.64 834.68 810.65 834.01 810.65 C 833.99 812.26 833.99 813.87 834.00 815.50 C 833.37 815.50 832.12 815.48 831.49 815.48 C 827.41 820.94 822.92 826.14 817.71 830.56 C 817.18 831.58 816.66 832.60 816.16 833.65 C 814.29 834.94 812.48 836.30 810.63 837.60 C 810.62 838.17 810.62 839.30 810.62 839.86 C 809.96 839.91 808.64 840.01 807.98 840.06 C 807.48 841.29 806.98 842.53 806.49 843.78 C 805.98 843.84 804.97 843.95 804.46 844.00 C 803.22 845.89 801.90 847.71 800.55 849.52 C 799.03 849.94 797.53 850.39 796.04 850.84 C 796.01 851.53 795.96 852.90 795.93 853.59 C 794.55 853.59 793.17 853.61 791.81 853.65 C 791.05 855.71 789.41 857.03 787.52 857.99 C 786.30 859.73 785.12 861.50 783.98 863.31 C 783.46 863.32 782.42 863.36 781.90 863.37 C 781.43 866.28 779.18 867.43 776.45 867.65 C 776.44 868.12 776.41 869.06 776.39 869.53 C 774.29 870.29 772.27 871.29 770.71 872.93 C 770.02 872.98 768.65 873.08 767.96 873.14 C 767.48 874.39 767.00 875.64 766.54 876.92 C 765.97 876.96 764.82 877.06 764.25 877.11 C 763.27 878.37 762.27 879.62 761.30 880.90 C 760.45 880.97 759.60 881.06 758.77 881.17 C 757.59 881.98 756.40 882.77 755.19 883.53 C 754.62 884.64 754.06 885.75 753.52 886.89 C 752.14 886.85 750.77 886.83 749.40 886.82 C 748.81 888.13 748.23 889.46 747.65 890.79 C 747.01 890.81 745.74 890.84 745.10 890.85 C 743.61 891.66 742.11 892.43 740.58 893.17 C 739.99 894.29 739.40 895.39 738.84 896.54 C 737.48 896.54 736.13 896.56 734.79 896.58 C 734.21 897.87 733.64 899.17 733.08 900.49 C 731.47 900.45 729.87 900.43 728.27 900.40 C 728.01 900.90 727.48 901.90 727.21 902.40 C 726.69 902.41 725.64 902.43 725.11 902.45 C 724.52 903.74 723.95 905.05 723.38 906.36 C 722.09 906.30 720.80 906.25 719.53 906.22 C 719.02 907.41 718.51 908.61 717.92 909.78 C 716.17 910.13 714.39 910.21 712.64 910.37 C 711.32 911.21 710.00 912.03 708.67 912.85 C 706.33 912.84 704.44 913.90 703.36 916.00 C 702.07 915.99 700.79 916.00 699.52 916.02 C 699.00 917.34 698.48 918.66 697.97 920.01 C 696.47 919.99 694.98 919.99 693.49 920.00 C 693.44 920.50 693.35 921.50 693.30 922.00 C 687.75 922.00 682.19 922.00 676.64 922.00 C 676.55 918.28 676.93 914.59 677.85 911.01 C 679.09 910.98 680.34 910.97 681.59 910.98 C 681.59 907.75 681.60 904.53 681.44 901.32 C 678.39 898.66 679.96 894.29 679.61 890.77 C 678.31 890.74 677.02 890.71 675.74 890.70 C 675.73 886.91 675.73 883.13 675.80 879.35 C 674.47 878.80 673.15 878.25 671.84 877.73 C 671.31 874.01 673.42 869.01 670.00 866.35 C 669.88 863.07 669.88 859.80 669.89 856.53 C 668.58 856.52 667.29 856.51 666.00 856.51 C 665.91 852.09 666.18 847.66 665.83 843.26 C 664.80 842.20 663.27 841.90 662.00 841.29 C 661.86 837.24 662.36 833.13 661.63 829.13 C 659.58 823.54 659.56 817.51 658.13 811.77 C 657.62 811.65 656.60 811.43 656.09 811.31 C 656.14 805.54 656.12 799.78 656.12 794.01 C 654.82 794.00 653.53 793.99 652.25 793.99 C 652.21 786.33 652.24 778.68 652.23 771.03 C 651.80 770.65 650.93 769.89 650.49 769.52 C 649.29 764.61 648.15 759.60 648.41 754.52 C 648.61 741.68 647.50 728.76 649.31 716.02 C 648.18 707.19 647.93 698.21 648.62 689.33 C 649.94 684.43 650.67 679.41 650.25 674.33 C 650.76 674.08 651.77 673.59 652.28 673.34 C 652.32 668.33 651.91 663.29 652.46 658.30 C 653.58 657.51 654.85 657.00 656.09 656.41 C 656.13 652.60 656.12 648.80 656.12 645.00 C 657.41 644.02 658.69 643.02 660.00 642.04 C 660.00 639.79 660.00 637.54 660.01 635.29 C 660.67 634.59 661.33 633.89 662.01 633.20 C 661.99 631.53 661.98 629.87 661.98 628.21 C 663.31 627.68 664.65 627.15 666.00 626.64 C 665.99 624.20 666.00 621.77 666.00 619.34 C 667.23 618.80 668.45 618.27 669.69 617.74 C 669.86 615.66 669.93 613.44 671.79 612.07 C 671.78 610.95 671.78 609.83 671.78 608.73 C 673.10 608.08 674.43 607.45 675.77 606.83 C 675.74 605.47 675.73 604.12 675.72 602.78 C 676.96 602.26 678.22 601.76 679.49 601.26 C 679.55 600.71 679.68 599.60 679.75 599.05 C 680.06 598.63 680.70 597.79 681.01 597.38 C 681.62 595.13 683.25 593.73 685.43 593.06 C 685.44 591.98 685.46 590.90 685.49 589.83 C 686.46 589.82 688.39 589.80 689.36 589.80 C 689.33 589.19 689.28 587.98 689.26 587.37 C 690.70 585.32 692.47 583.55 695.17 583.49 C 695.18 582.34 695.20 581.19 695.23 580.06 C 696.26 580.01 697.29 579.96 698.33 579.92 C 700.16 577.42 702.54 575.40 704.94 573.47 C 704.96 572.40 705.00 571.33 705.04 570.28 C 706.10 570.21 707.18 570.14 708.27 570.09 C 710.22 567.84 712.32 565.74 714.50 563.71 C 714.92 562.62 715.35 561.54 715.79 560.47 C 716.32 560.44 717.37 560.40 717.90 560.38 C 719.83 557.98 722.08 555.86 724.48 553.94 C 724.50 552.87 724.53 551.82 724.57 550.77 C 725.85 550.74 727.13 550.72 728.43 550.70 C 728.41 549.29 728.40 547.87 728.41 546.47 C 730.41 545.36 732.38 544.18 734.29 542.91 C 734.26 541.30 734.25 539.70 734.25 538.11 C 735.30 537.59 736.35 537.08 737.42 536.57 C 738.68 535.28 740.15 534.24 741.75 533.40 C 742.69 530.64 743.73 527.92 744.97 525.28 C 745.69 525.29 747.12 525.30 747.83 525.30 C 747.94 522.68 748.10 520.06 748.54 517.47 C 749.38 517.49 751.07 517.51 751.91 517.53 C 751.92 515.91 751.92 514.29 751.95 512.69 C 752.43 512.66 753.41 512.60 753.90 512.58 C 753.88 511.11 753.87 509.65 753.88 508.21 C 755.10 507.32 756.42 506.53 757.54 505.50 C 757.88 503.39 757.78 501.24 757.83 499.12 C 759.10 498.18 760.39 497.26 761.70 496.36 C 761.65 492.44 761.66 488.52 761.65 484.60 C 762.15 484.41 763.14 484.01 763.64 483.81 C 763.55 475.86 763.69 467.90 763.55 459.94 C 760.16 457.22 762.13 452.34 761.70 448.61 C 760.38 448.07 759.07 447.51 757.78 446.98 C 757.77 445.04 757.76 443.11 757.75 441.18 C 756.58 440.16 755.42 439.14 754.27 438.12 C 753.55 436.63 752.79 435.18 751.99 433.75 C 751.87 426.22 751.95 418.70 751.93 411.17 C 750.61 411.16 749.30 411.15 748.00 411.15 C 748.00 405.11 748.00 399.07 748.00 393.03 C 746.71 392.46 745.43 391.90 744.16 391.33 C 744.05 387.11 742.91 383.04 741.79 379.00 C 740.59 378.99 739.40 378.99 738.22 379.00 C 738.17 377.24 738.13 375.49 738.10 373.74 C 735.32 372.38 733.52 369.89 731.78 367.46 C 730.64 367.05 729.51 366.65 728.40 366.25 C 728.40 365.53 728.41 364.07 728.41 363.35 C 726.89 363.34 725.37 363.33 723.88 363.33 C 722.57 359.38 722.41 354.58 718.78 351.92 C 718.72 350.22 718.70 348.53 718.67 346.84 C 717.60 346.80 716.55 346.77 715.50 346.74 C 714.75 345.56 714.04 344.40 713.26 343.26 C 712.65 342.17 712.06 341.08 711.48 340.00 C 710.95 340.00 709.89 340.00 709.36 340.00 C 708.93 339.50 708.07 338.50 707.64 338.00 C 705.69 338.00 703.75 337.99 701.82 337.98 C 700.35 336.64 698.84 335.37 697.38 334.03 C 677.47 333.96 657.56 334.02 637.65 334.00 C 637.63 332.70 637.63 331.40 637.63 330.10 C 632.86 330.10 628.09 330.09 623.32 330.10 C 622.88 329.61 622.01 328.62 621.58 328.12 C 617.99 328.16 614.40 328.16 610.82 328.15 C 609.89 326.82 608.95 325.52 608.00 324.23 C 605.04 324.25 602.05 324.47 599.12 324.07 C 597.84 323.28 597.67 321.60 596.96 320.40 C 594.69 320.37 592.42 320.37 590.16 320.37 C 589.76 319.88 588.96 318.90 588.56 318.41 C 586.14 318.42 583.72 318.43 581.30 318.44 C 580.74 317.12 580.20 315.81 579.65 314.50 C 577.48 314.51 575.32 314.50 573.17 314.48 C 572.47 313.25 571.79 312.04 571.11 310.83 C 568.71 310.62 565.99 310.89 564.26 308.86 C 562.80 308.77 561.34 308.71 559.89 308.65 C 559.31 307.37 558.73 306.09 558.16 304.82 C 556.49 304.81 554.84 304.81 553.19 304.81 C 552.81 304.46 552.07 303.77 551.69 303.43 C 551.70 302.82 551.70 301.59 551.70 300.98 C 550.39 300.93 549.09 300.89 547.79 300.86 C 545.49 298.70 542.88 296.91 540.36 295.02 C 539.02 295.01 537.68 295.00 536.36 295.00 C 535.80 293.66 535.23 292.33 534.69 291.00 C 532.60 291.01 530.51 291.02 528.43 291.03 C 527.90 289.72 527.37 288.42 526.85 287.12 C 526.11 287.13 524.63 287.14 523.90 287.15 C 523.22 286.49 522.55 285.84 521.89 285.19 C 520.21 285.19 518.53 285.19 516.87 285.19 C 516.33 283.90 515.79 282.61 515.26 281.32 C 513.06 281.30 510.86 281.27 508.67 281.21 C 506.90 279.01 504.36 278.05 501.57 278.28 C 500.13 277.38 498.70 276.45 497.31 275.49 C 493.84 275.46 490.37 275.46 486.91 275.45 C 485.92 274.12 484.92 272.81 483.90 271.52 C 469.31 271.64 454.72 271.55 440.13 271.56 C 439.76 271.89 439.00 272.55 438.63 272.88 C 438.59 273.52 438.50 274.82 438.46 275.47 C 434.23 275.46 430.01 275.42 425.78 275.54 C 423.16 277.86 419.61 277.44 416.38 277.43 C 415.85 278.69 415.32 279.95 414.81 281.22 C 412.69 281.28 410.56 281.18 408.47 281.55 C 407.41 282.42 407.28 283.96 406.67 285.12 C 404.88 285.18 403.09 285.23 401.31 285.29 C 399.82 286.13 398.31 286.92 396.78 287.67 C 396.66 288.04 396.42 288.78 396.31 289.15 C 395.42 289.12 393.66 289.06 392.77 289.02 C 392.73 289.52 392.65 290.51 392.61 291.00 C 391.28 291.02 389.95 291.04 388.63 291.06 C 387.25 293.28 385.33 295.12 382.62 295.46 C 380.51 299.25 375.83 298.07 372.36 297.38 C 371.36 297.18 370.37 296.98 369.38 296.80 C 368.60 296.04 367.83 295.29 367.06 294.54 C 367.05 291.74 367.04 288.94 367.03 286.15 C 365.75 286.16 364.46 286.18 363.19 286.20 C 363.16 283.38 363.15 280.57 363.14 277.75 C 361.94 277.21 360.75 276.66 359.57 276.12 C 359.08 271.70 357.33 267.54 357.05 263.09 C 355.86 262.76 354.68 262.44 353.50 262.11 C 353.45 259.51 353.44 256.92 353.46 254.33 C 352.15 253.79 350.84 253.25 349.54 252.72 C 349.54 250.94 349.54 249.15 349.55 247.37 C 349.06 246.98 348.08 246.21 347.58 245.82 C 347.58 244.82 347.59 243.82 347.60 242.82 C 346.28 241.92 344.98 241.00 343.69 240.08 C 343.69 238.20 343.70 236.32 343.71 234.45 C 342.93 234.46 341.38 234.47 340.61 234.48 C 340.19 232.82 339.82 231.14 339.44 229.48 C 337.41 227.62 336.55 224.97 335.18 222.67 C 333.45 222.92 331.77 223.39 330.08 223.82 C 329.88 232.45 330.61 241.14 329.66 249.73 C 329.39 250.16 328.85 251.02 328.58 251.45 C 327.67 259.20 328.39 267.03 328.12 274.82 C 326.62 276.66 323.98 278.20 324.27 280.92 C 324.17 289.18 324.33 297.45 324.25 305.72 C 322.94 305.77 321.65 305.83 320.35 305.89 C 320.23 313.25 320.68 320.63 320.19 327.98 C 319.78 328.50 318.94 329.56 318.53 330.09 C 318.46 331.68 318.40 333.27 318.36 334.87 C 317.57 335.41 316.79 335.95 316.01 336.50 C 314.30 337.97 312.49 339.33 310.65 340.64 C 310.62 341.29 310.54 342.59 310.50 343.24 C 309.01 343.56 307.51 343.85 306.02 344.15 C 305.50 345.35 304.98 346.55 304.46 347.75 C 303.54 347.77 302.62 347.80 301.70 347.83 C 299.87 350.34 297.63 352.52 295.08 354.30 C 295.05 355.09 295.00 356.68 294.97 357.48 C 293.67 357.47 292.38 357.48 291.09 357.48 C 291.08 358.09 291.06 359.32 291.05 359.94 C 289.84 361.24 288.65 362.55 287.38 363.79 C 285.49 366.60 285.39 371.10 281.36 371.70 C 281.32 372.05 281.25 372.75 281.22 373.10 C 280.45 373.08 278.93 373.05 278.17 373.04 C 277.31 373.96 276.43 374.87 275.54 375.76 C 275.50 376.07 275.41 376.69 275.36 377.00 C 272.75 376.99 270.13 376.99 267.52 377.00 C 267.51 375.69 267.50 374.38 267.50 373.07 C 265.02 373.07 262.54 373.07 260.07 373.08 C 258.32 371.23 256.63 369.33 255.12 367.28 C 254.27 367.23 253.42 367.18 252.58 367.14 C 251.25 365.83 249.89 364.57 248.55 363.29 C 247.97 363.31 246.82 363.33 246.24 363.34 C 244.76 361.38 243.30 359.39 241.79 357.44 C 239.95 357.47 238.11 357.48 236.27 357.50 C 236.23 356.25 236.20 355.00 236.17 353.75 C 235.10 353.60 234.03 353.45 232.96 353.31 C 232.74 352.72 232.31 351.54 232.09 350.95 C 230.40 350.50 228.71 350.02 227.03 349.56 C 226.77 349.30 226.25 348.77 225.98 348.51 C 224.19 347.38 223.01 345.62 221.86 343.91 C 220.46 343.88 219.07 343.87 217.68 343.86 C 216.19 341.55 214.15 339.64 211.24 339.66 C 210.80 339.25 209.93 338.41 209.49 337.99 C 208.40 338.01 207.32 338.03 206.24 338.06 C 205.27 336.72 204.32 335.37 203.41 334.00 C 201.41 333.99 199.42 334.00 197.43 334.00 C 196.86 332.68 196.29 331.37 195.73 330.06 C 190.41 330.12 185.10 330.09 179.78 330.10 C 179.81 330.83 179.87 332.28 179.90 333.01 C 178.72 333.46 177.54 333.91 176.36 334.35 C 175.61 335.41 174.84 336.47 174.07 337.52 C 174.00 338.40 173.92 339.28 173.85 340.16 C 172.52 341.49 171.26 342.88 170.00 344.27 C 170.00 361.84 169.99 379.41 170.00 396.98 C 169.92 399.74 170.48 402.45 171.12 405.12 C 171.83 405.16 173.25 405.23 173.96 405.27 C 174.12 410.78 173.62 416.32 174.17 421.81 C 174.59 422.32 175.42 423.35 175.84 423.86 C 175.99 428.97 175.90 434.09 175.90 439.20 C 177.08 439.34 178.26 439.48 179.45 439.63 C 179.93 444.22 179.83 448.84 179.83 453.46 C 181.13 454.49 182.41 455.55 183.71 456.59 C 183.70 460.16 183.70 463.74 183.68 467.33 C 184.18 467.57 185.19 468.04 185.69 468.28 C 185.63 472.61 185.64 476.93 185.64 481.26 C 186.93 481.31 188.23 481.36 189.52 481.43 C 189.53 486.46 189.57 491.49 189.49 496.53 C 190.38 497.43 191.28 498.33 192.20 499.23 C 194.18 502.12 193.19 505.77 193.42 509.05 C 193.16 512.84 195.19 516.27 195.35 520.02 C 195.51 523.25 195.37 526.48 195.32 529.71 C 196.63 530.12 197.94 530.54 199.25 530.98 C 199.27 537.45 199.28 543.94 199.23 550.42 C 200.54 550.95 201.84 551.49 203.15 552.04 C 203.66 560.68 201.73 569.69 204.95 577.97 C 205.45 585.66 204.81 593.38 205.16 601.08 C 205.34 604.10 206.54 607.11 208.97 609.03 C 209.04 630.71 208.98 652.38 208.99 674.05 C 206.00 676.45 204.62 680.22 205.05 684.00 C 204.57 690.36 206.63 697.33 203.23 703.14 C 202.74 707.99 204.22 713.25 202.01 717.80 C 201.10 718.77 200.20 719.76 199.26 720.72 C 199.28 724.31 199.25 727.91 199.25 731.50 C 197.96 731.51 196.66 731.53 195.37 731.56 C 194.93 735.40 196.80 740.23 193.52 743.18 C 193.44 745.36 193.42 747.55 193.42 749.75 C 192.11 750.27 190.80 750.80 189.50 751.34 C 189.52 754.15 189.53 756.97 189.54 759.80 C 188.25 759.85 186.98 759.91 185.70 759.99 C 185.65 761.89 185.60 763.81 185.50 765.74 C 183.77 767.40 183.64 769.76 183.45 772.01 C 182.21 772.92 180.99 773.86 179.77 774.81 C 179.79 776.95 179.80 779.10 179.82 781.26 C 178.55 781.27 177.28 781.28 176.02 781.31 C 175.94 782.91 175.86 784.52 175.79 786.14 C 174.42 788.32 173.49 790.86 171.39 792.49 C 169.47 793.76 170.19 796.30 169.84 798.25 C 168.98 799.12 168.12 800.00 167.26 800.89 C 162.26 800.90 157.21 801.27 152.27 800.29 C 152.27 799.57 152.27 798.14 152.27 797.43 C 150.36 796.00 148.44 794.60 146.41 793.37 C 146.40 791.50 146.39 789.64 146.39 787.79 C 144.36 786.53 142.41 785.16 140.51 783.72 C 140.50 783.29 140.47 782.44 140.46 782.02 C 139.58 781.09 138.77 780.12 138.00 779.13 C 137.34 777.92 136.73 776.70 136.15 775.48 C 135.59 775.48 134.45 775.48 133.89 775.49 C 133.05 772.46 131.41 769.81 128.96 767.84 C 128.89 767.32 128.76 766.26 128.69 765.74 C 126.84 764.33 126.88 762.00 126.65 759.92 C 125.43 759.89 124.21 759.86 122.99 759.85 C 122.99 758.28 123.00 756.72 123.01 755.18 C 121.77 754.25 120.52 753.35 119.27 752.47 C 119.00 750.51 118.97 748.36 117.16 747.13 C 117.10 746.25 117.04 745.39 116.99 744.54 C 115.70 744.08 114.42 743.64 113.15 743.17 C 113.12 741.73 113.10 740.30 113.07 738.88 C 111.93 738.41 110.81 737.90 109.72 737.34 C 109.25 735.73 109.12 734.05 108.87 732.42 C 107.42 729.33 107.59 724.80 103.46 724.07 C 103.44 722.36 103.42 720.65 103.41 718.96 C 102.16 718.90 100.91 718.85 99.66 718.81 C 99.71 715.42 99.49 711.97 97.67 709.01 C 97.66 708.33 97.65 706.99 97.64 706.31 C 96.40 705.39 95.15 704.48 93.89 703.60 C 93.75 701.89 93.74 700.17 93.39 698.51 C 92.40 697.35 91.11 696.50 89.91 695.60 C 89.84 693.71 89.77 691.84 89.69 689.97 C 88.40 689.09 87.14 688.20 85.88 687.30 C 85.89 685.45 85.88 683.61 85.85 681.78 C 82.90 679.88 84.22 676.18 83.95 673.29 C 82.63 672.74 81.32 672.18 80.00 671.65 C 80.00 668.85 80.00 666.05 79.99 663.26 C 78.68 662.31 77.36 661.37 76.02 660.48 C 76.03 658.14 76.03 655.81 76.02 653.48 C 75.53 653.42 74.56 653.29 74.08 653.22 C 74.09 649.39 74.09 645.56 74.06 641.74 C 72.78 641.70 71.49 641.67 70.20 641.64 C 69.70 637.51 71.65 632.44 68.52 629.07 C 68.38 628.79 68.11 628.21 67.97 627.93 C 64.82 624.69 66.80 619.71 66.33 615.70 C 65.83 615.46 64.82 614.97 64.32 614.73 C 64.38 609.42 64.36 604.12 64.35 598.82 C 63.06 598.77 61.77 598.72 60.48 598.67 C 60.40 591.51 60.59 584.35 60.36 577.19 C 59.27 576.03 58.25 574.74 58.52 573.04 C 58.52 537.37 58.52 501.69 58.52 466.02 C 58.24 464.30 59.26 463.01 60.37 461.88 C 60.57 455.04 60.41 448.20 60.48 441.36 C 61.77 441.32 63.06 441.27 64.35 441.23 C 64.36 435.58 64.38 429.94 64.31 424.29 C 64.82 424.07 65.82 423.62 66.33 423.40 C 66.30 420.08 66.30 416.76 66.29 413.44 C 67.58 412.22 68.87 411.00 70.17 409.79 C 70.19 405.99 70.19 402.19 70.21 398.40 C 71.03 398.38 72.69 398.35 73.52 398.34 C 74.13 394.53 74.16 390.68 74.10 386.84 C 74.58 386.77 75.53 386.62 76.00 386.55 C 76.02 384.59 76.05 382.63 76.07 380.68 C 77.41 379.31 78.70 377.89 80.00 376.49 C 80.00 373.36 80.00 370.24 80.00 367.12 C 81.32 367.08 82.64 367.04 83.96 367.01 C 83.97 364.34 83.97 361.67 84.01 359.01 C 86.42 357.89 87.09 355.51 87.22 353.07 C 90.06 350.56 90.01 346.82 89.92 343.33 C 91.07 342.71 92.57 342.55 93.46 341.53 C 93.81 339.44 93.72 337.30 93.78 335.19 C 95.09 334.64 96.41 334.10 97.72 333.56 C 97.63 332.26 97.54 330.97 97.45 329.68 C 98.17 328.96 98.89 328.25 99.60 327.54 C 99.56 325.89 99.51 324.24 99.46 322.60 C 100.80 321.96 102.14 321.33 103.49 320.71 C 103.45 319.05 103.42 317.39 103.39 315.74 C 104.58 315.17 105.77 314.61 106.97 314.05 C 107.28 311.77 107.86 309.54 109.06 307.55 C 109.14 306.49 109.23 305.44 109.31 304.40 C 110.59 303.28 111.87 302.15 113.16 301.05 C 113.16 299.33 113.15 297.61 113.16 295.89 C 114.45 295.88 115.75 295.87 117.04 295.87 C 117.04 294.27 117.03 292.69 117.03 291.10 C 117.52 291.06 118.51 290.97 119.00 290.92 C 119.00 289.41 119.00 287.91 119.00 286.42 C 120.33 285.85 121.66 285.27 123.00 284.71 C 123.00 283.71 123.00 282.71 123.00 281.72 C 124.35 280.79 125.68 279.84 127.01 278.88 C 126.97 278.06 126.89 276.41 126.85 275.58 C 127.37 275.43 128.42 275.12 128.94 274.96 C 128.91 274.24 128.85 272.79 128.82 272.07 C 130.16 271.10 131.50 270.13 132.83 269.15 C 132.80 267.63 132.77 266.11 132.75 264.59 C 134.02 264.58 135.30 264.58 136.57 264.59 C 136.62 263.98 136.71 262.78 136.76 262.18 C 137.08 261.75 137.71 260.89 138.03 260.47 C 139.08 258.34 140.63 256.53 142.43 255.00 C 142.46 253.98 142.50 252.97 142.53 251.95 C 143.49 251.94 145.42 251.92 146.39 251.91 C 146.39 250.52 146.40 249.14 146.40 247.76 C 148.35 246.31 150.19 244.71 151.92 243.01 C 151.96 240.24 153.06 237.97 156.00 237.51 C 156.05 237.02 156.16 236.03 156.21 235.54 C 157.35 235.04 158.49 234.55 159.63 234.06 C 160.95 232.11 162.32 230.19 163.65 228.25 C 164.93 226.89 165.87 225.27 166.66 223.60 C 167.16 223.60 168.16 223.60 168.66 223.60 C 170.40 220.30 172.59 217.20 175.67 215.02 C 175.70 214.49 175.75 213.43 175.77 212.90 C 176.86 212.87 177.96 212.84 179.07 212.81 C 180.02 211.29 180.99 209.78 182.03 208.32 C 183.47 206.62 184.87 204.89 186.14 203.06 C 186.95 203.04 188.56 202.98 189.36 202.95 C 189.35 201.80 189.34 200.64 189.33 199.49 C 190.63 199.06 191.94 198.64 193.24 198.21 C 193.26 197.64 193.31 196.51 193.34 195.94 C 194.87 193.88 196.22 191.50 198.86 190.71 C 199.27 190.39 200.10 189.76 200.52 189.45 C 201.13 189.42 202.36 189.35 202.98 189.32 C 202.99 188.49 203.01 186.83 203.02 186.00 C 207.89 184.92 210.71 180.11 215.76 179.36 C 215.77 178.17 215.79 176.98 215.80 175.79 C 216.33 175.75 217.38 175.67 217.91 175.63 C 220.70 171.82 225.46 170.14 227.91 165.98 C 229.28 165.99 230.65 165.99 232.02 166.00 C 232.47 164.81 232.94 163.64 233.41 162.46 C 234.93 161.55 236.43 160.60 237.94 159.68 C 238.46 158.49 238.97 157.31 239.49 156.12 C 240.87 156.12 242.25 156.12 243.63 156.12 C 244.03 154.91 244.45 153.71 244.88 152.52 C 249.52 152.89 252.85 149.56 255.75 146.44 C 257.07 146.40 258.40 146.37 259.74 146.33 C 259.73 145.38 259.73 143.47 259.72 142.52 C 261.52 142.50 263.33 142.49 265.14 142.48 C 265.67 141.49 266.21 140.51 266.76 139.52 C 267.59 139.56 269.27 139.62 270.11 139.66 C 270.69 138.66 271.28 137.66 271.87 136.67 C 273.31 136.66 274.77 136.66 276.22 136.65 C 276.24 135.36 276.26 134.08 276.28 132.80 C 277.66 132.79 279.04 132.78 280.43 132.78 C 281.00 131.53 281.52 130.26 282.27 129.11 C 284.47 128.78 286.71 128.87 288.93 128.84 C 288.95 128.36 289.00 127.40 289.02 126.92 C 290.87 126.93 292.73 126.95 294.58 126.98 C 295.10 125.65 295.63 124.32 296.15 123.00 C 298.01 123.00 299.87 123.00 301.74 123.00 C 301.72 122.16 301.68 120.48 301.66 119.64 C 303.91 119.25 306.17 119.00 308.44 118.77 C 308.52 118.33 308.68 117.44 308.77 116.99 C 310.61 117.02 312.47 117.04 314.32 117.05 C 314.35 115.76 314.38 114.47 314.42 113.18 C 316.88 113.16 319.35 113.16 321.82 113.15 C 322.36 111.86 322.91 110.57 323.46 109.28 C 325.30 109.26 327.14 109.22 328.98 109.17 C 331.54 107.77 334.39 107.16 337.29 107.09 C 338.07 105.89 338.71 104.58 339.71 103.54 C 342.21 103.31 344.73 103.40 347.25 103.41 C 347.81 102.11 348.38 100.82 348.95 99.53 C 351.20 99.54 353.44 99.55 355.69 99.56 C 356.39 98.94 357.09 98.31 357.80 97.69 C 361.71 97.62 366.76 97.88 368.84 93.77 C 371.74 93.70 374.65 93.70 377.57 93.74 C 378.09 92.42 378.63 91.11 379.17 89.80 C 382.79 89.81 386.42 89.81 390.04 89.83 C 390.71 89.18 391.38 88.53 392.06 87.88 C 392.78 87.88 394.21 87.87 394.92 87.86 C 395.59 87.21 396.26 86.57 396.94 85.92 C 399.67 85.93 402.39 85.92 405.12 85.86 C 405.62 85.42 406.61 84.55 407.10 84.11 C 412.32 83.70 417.57 84.08 422.80 83.98 C 422.81 82.65 422.82 81.32 422.84 80.00 C 429.99 79.97 437.14 80.08 444.29 79.92 Z" />
<path fill="#feffff" d=" M 451.24 84.00 C 483.42 84.00 515.60 84.00 547.78 84.00 C 547.80 84.50 547.85 85.50 547.88 86.00 C 555.63 86.00 563.38 86.00 571.13 86.00 C 571.16 87.32 571.20 88.64 571.25 89.95 C 576.34 90.00 581.43 89.98 586.53 90.00 C 586.96 90.46 587.81 91.37 588.24 91.83 C 592.12 92.67 596.06 93.05 600.03 92.97 C 601.03 93.93 602.04 94.88 603.05 95.84 C 606.63 95.82 610.21 95.82 613.79 95.81 C 614.34 97.12 614.91 98.43 615.48 99.75 C 618.71 99.72 621.95 99.70 625.19 99.67 C 626.17 101.01 627.18 102.35 628.20 103.67 C 630.53 103.63 632.86 103.60 635.21 103.56 C 635.51 104.08 636.11 105.12 636.40 105.63 C 639.39 105.57 642.38 105.55 645.37 105.54 C 645.39 106.84 645.42 108.13 645.46 109.43 C 648.67 109.44 651.88 109.45 655.10 109.45 C 655.13 110.75 655.16 112.04 655.20 113.34 C 657.35 113.33 659.51 113.32 661.67 113.30 C 662.07 113.79 662.87 114.78 663.27 115.27 C 665.27 115.27 667.27 115.27 669.29 115.26 C 670.17 116.59 671.09 117.90 672.03 119.20 C 674.23 119.18 676.44 119.18 678.65 119.17 C 678.64 120.35 678.64 121.54 678.64 122.72 C 683.24 123.36 687.51 125.60 692.26 125.17 C 692.27 126.44 692.29 127.72 692.32 129.00 C 694.24 129.00 696.15 129.00 698.08 129.01 C 698.10 130.27 698.13 131.53 698.17 132.80 C 700.81 133.13 704.17 132.18 705.94 134.80 C 707.15 134.85 708.38 134.90 709.62 134.94 C 710.18 136.25 710.76 137.54 711.34 138.85 C 713.12 138.82 714.90 138.80 716.70 138.78 C 716.74 140.10 716.79 141.42 716.84 142.74 C 718.30 142.70 719.77 142.66 721.25 142.61 C 721.91 143.61 722.58 144.61 723.26 145.62 C 724.48 145.61 725.70 145.60 726.94 145.59 C 727.51 146.58 728.09 147.57 728.69 148.55 C 729.87 148.54 731.07 148.53 732.27 148.51 C 732.30 149.81 732.33 151.12 732.37 152.42 C 734.06 152.40 735.78 152.38 737.49 152.36 C 738.08 153.20 738.69 154.04 739.30 154.88 C 741.55 156.54 744.07 157.79 746.75 158.61 C 747.26 159.79 747.77 160.96 748.28 162.15 C 748.87 162.13 750.04 162.09 750.62 162.07 C 751.40 163.28 752.18 164.51 752.99 165.72 C 754.97 166.07 756.90 166.69 758.60 167.82 C 759.12 167.91 760.18 168.07 760.71 168.15 C 760.70 169.43 760.71 170.71 760.72 172.00 C 762.32 172.00 763.93 172.00 765.55 172.00 C 765.54 173.24 765.55 174.49 765.56 175.74 C 766.55 175.88 767.55 176.04 768.57 176.20 C 770.24 177.63 772.19 178.66 774.21 179.53 C 774.27 180.08 774.38 181.18 774.44 181.72 C 775.67 181.74 776.91 181.77 778.16 181.79 C 778.17 182.92 778.19 184.05 778.23 185.18 C 779.52 185.72 780.81 186.30 782.12 186.87 C 783.59 188.12 784.66 189.73 785.66 191.38 C 786.75 191.42 787.85 191.46 788.96 191.50 C 788.97 192.14 789.00 193.41 789.01 194.04 C 791.68 194.96 794.94 195.59 795.44 198.94 C 798.62 201.29 801.52 203.98 804.58 206.48 C 804.61 206.95 804.67 207.88 804.70 208.35 C 806.96 209.28 808.78 210.89 810.51 212.57 C 810.51 213.15 810.51 214.32 810.51 214.91 C 811.23 214.95 812.66 215.03 813.37 215.07 C 813.41 215.84 813.48 217.38 813.51 218.15 C 814.71 218.49 815.92 218.83 817.14 219.17 C 817.27 219.64 817.52 220.56 817.64 221.03 C 818.19 221.29 819.27 221.81 819.81 222.07 C 821.38 224.51 822.99 226.92 824.54 229.37 C 825.68 229.87 826.84 230.37 828.00 230.87 C 828.00 231.76 828.00 233.53 828.00 234.42 C 828.74 234.41 830.22 234.38 830.95 234.36 C 831.40 235.49 831.84 236.63 832.29 237.77 C 833.01 238.92 833.71 240.08 834.43 241.25 C 835.56 241.25 836.70 241.25 837.85 241.26 C 837.84 242.46 837.85 243.66 837.86 244.87 C 839.17 245.39 840.50 245.93 841.83 246.46 C 841.79 247.56 841.76 248.66 841.74 249.76 C 842.25 250.17 843.26 250.97 843.76 251.38 C 843.75 252.03 843.73 253.34 843.72 254.00 C 845.00 254.00 846.29 254.01 847.59 254.02 C 847.58 255.18 847.59 256.34 847.61 257.50 C 848.75 257.94 849.94 258.39 851.11 258.86 C 851.65 262.05 853.49 264.75 854.99 267.56 C 855.57 267.62 856.74 267.74 857.32 267.80 C 857.31 268.93 857.30 270.06 857.31 271.20 C 858.59 271.76 859.89 272.33 861.19 272.90 C 861.20 274.21 861.21 275.53 861.24 276.84 C 862.93 278.38 864.53 280.02 865.74 281.98 C 866.06 282.10 866.70 282.36 867.03 282.49 C 867.03 284.35 867.04 286.22 867.06 288.09 C 868.36 288.10 869.68 288.10 871.00 288.11 C 870.99 289.40 870.99 290.70 871.00 292.00 C 872.32 292.00 873.64 292.00 874.98 292.00 C 874.97 293.80 874.98 295.61 875.00 297.42 C 875.64 298.47 876.29 299.52 876.95 300.58 C 876.94 301.66 876.93 302.74 876.94 303.82 C 878.23 303.83 879.52 303.84 880.83 303.86 C 880.82 305.28 880.81 306.70 880.82 308.13 C 882.93 309.87 885.10 311.72 885.27 314.69 C 886.07 316.65 886.61 318.69 887.07 320.75 C 888.08 321.18 889.09 321.66 890.08 322.19 C 890.59 323.77 890.55 325.47 890.78 327.11 C 891.92 327.98 893.07 328.84 894.24 329.69 C 894.39 332.10 894.75 334.52 895.81 336.72 C 896.57 339.18 898.29 341.07 900.21 342.71 C 900.27 345.35 900.29 347.99 900.32 350.63 C 901.59 350.66 902.87 350.69 904.16 350.73 C 904.16 352.90 904.16 355.07 904.17 357.24 C 904.58 357.34 905.40 357.54 905.81 357.64 C 906.58 360.99 906.49 365.16 909.96 367.01 C 909.98 369.28 909.98 371.55 909.98 373.83 C 911.29 374.77 912.61 375.70 913.98 376.59 C 913.98 379.04 913.80 381.52 914.17 383.96 C 915.15 385.97 916.59 387.72 917.91 389.52 C 917.93 391.19 917.94 392.86 917.98 394.54 C 918.46 394.59 919.43 394.68 919.91 394.73 C 919.89 398.58 919.89 402.43 919.90 406.29 C 921.19 406.29 922.48 406.30 923.78 406.31 C 923.78 410.53 923.78 414.75 923.80 418.97 C 924.30 419.01 925.30 419.07 925.80 419.10 C 925.78 419.74 925.75 421.01 925.74 421.65 C 926.23 422.08 927.22 422.93 927.72 423.35 C 927.68 426.62 927.67 429.89 927.66 433.16 C 928.32 433.85 928.98 434.56 929.65 435.27 C 929.61 440.89 929.62 446.52 929.63 452.15 C 930.92 452.17 932.22 452.20 933.53 452.23 C 933.50 459.91 933.54 467.58 933.50 475.26 C 934.00 475.50 935.00 475.99 935.50 476.23 C 935.44 505.38 935.45 534.53 935.50 563.68 C 934.82 564.39 934.16 565.11 933.51 565.83 C 933.54 572.73 933.48 579.63 933.56 586.53 C 932.24 587.08 930.91 587.64 929.61 588.21 C 929.64 594.14 929.61 600.08 929.64 606.02 C 929.15 606.17 928.16 606.48 927.66 606.64 C 927.67 609.65 927.68 612.66 927.72 615.67 C 927.23 616.10 926.25 616.94 925.77 617.36 C 925.77 617.94 925.76 619.11 925.76 619.69 C 925.27 620.09 924.28 620.89 923.79 621.29 C 923.78 625.01 923.78 628.73 923.82 632.46 C 922.50 632.98 921.20 633.52 919.90 634.06 C 919.90 637.68 919.90 641.30 919.89 644.93 C 918.91 645.47 917.96 646.05 917.01 646.63 C 917.13 650.02 917.36 653.97 914.02 656.00 C 913.97 659.00 913.99 661.99 914.00 664.99 C 912.67 664.99 911.36 664.99 910.05 665.00 C 910.01 667.68 909.99 670.36 909.95 673.04 C 906.80 674.70 906.35 678.30 905.73 681.44 C 905.34 681.54 904.55 681.74 904.16 681.84 C 904.16 683.90 904.16 685.97 904.18 688.05 C 902.87 688.58 901.57 689.14 900.28 689.69 C 900.28 692.07 900.28 694.46 900.29 696.86 C 899.62 697.10 898.28 697.60 897.61 697.85 C 897.06 699.78 896.55 701.72 896.14 703.70 C 895.54 704.33 894.95 704.98 894.38 705.64 C 894.41 707.26 894.46 708.90 894.52 710.54 C 893.18 711.09 891.84 711.65 890.53 712.23 C 890.53 713.92 890.56 715.63 890.59 717.35 C 889.39 717.89 888.19 718.43 887.01 718.99 C 886.11 722.36 884.94 725.67 884.41 729.13 C 883.19 729.65 881.99 730.18 880.81 730.72 C 880.80 732.53 880.81 734.35 880.84 736.18 C 879.56 736.19 878.29 736.20 877.04 736.23 C 876.93 737.23 876.84 738.25 876.76 739.27 C 875.84 741.29 875.10 743.39 874.59 745.56 C 873.35 746.44 872.14 747.35 870.94 748.27 C 870.96 748.86 870.99 750.04 871.01 750.63 C 869.72 751.15 868.45 751.69 867.18 752.24 C 867.05 753.99 867.07 755.77 866.69 757.50 C 865.22 759.51 863.17 761.00 861.24 762.52 C 861.21 764.49 861.18 766.46 861.17 768.45 C 859.88 768.46 858.60 768.47 857.33 768.50 C 857.35 769.17 857.38 770.51 857.39 771.18 C 856.64 771.28 855.13 771.47 854.38 771.57 C 854.40 772.35 854.44 773.92 854.46 774.70 C 853.47 775.67 852.49 776.64 851.51 777.62 C 851.48 778.75 851.46 779.89 851.46 781.04 C 850.16 781.08 848.87 781.14 847.60 781.20 C 847.59 782.45 847.58 783.70 847.59 784.97 C 846.87 784.99 845.43 785.03 844.71 785.05 C 844.71 785.69 844.70 786.98 844.70 787.63 C 843.72 788.51 842.75 789.41 841.80 790.31 C 841.77 790.82 841.70 791.83 841.67 792.34 C 841.35 792.99 840.71 794.29 840.40 794.93 C 839.91 794.94 838.93 794.94 838.44 794.95 C 837.96 797.22 836.56 798.82 834.26 799.32 C 833.05 801.10 831.86 802.89 830.70 804.70 C 830.03 804.69 828.68 804.66 828.01 804.65 C 827.98 806.23 827.99 807.83 827.99 809.44 C 827.33 809.49 826.00 809.59 825.34 809.64 C 821.73 814.68 817.51 819.27 813.00 823.52 C 812.66 823.76 811.99 824.25 811.66 824.49 C 811.20 825.49 810.76 826.50 810.33 827.51 C 808.41 828.87 806.53 830.28 804.60 831.60 C 804.64 832.15 804.74 833.25 804.79 833.79 C 804.09 833.85 802.68 833.96 801.98 834.02 C 801.47 835.29 800.96 836.57 800.46 837.86 C 800.00 837.89 799.07 837.97 798.60 838.00 C 797.46 839.24 796.27 840.43 795.03 841.56 C 794.97 842.09 794.87 843.14 794.82 843.67 C 794.26 843.70 793.14 843.76 792.58 843.79 C 791.94 844.11 790.65 844.75 790.00 845.07 C 789.99 845.70 789.97 846.95 789.96 847.58 C 788.55 847.59 787.15 847.61 785.77 847.66 C 785.02 849.69 783.39 851.03 781.53 852.00 C 780.29 853.74 779.10 855.50 777.96 857.31 C 776.75 857.31 775.55 857.33 774.37 857.35 C 774.32 858.61 774.29 859.88 774.26 861.16 C 773.00 861.18 771.75 861.21 770.51 861.26 C 770.47 861.80 770.39 862.89 770.35 863.43 C 768.31 864.28 766.34 865.31 764.68 866.81 C 764.01 866.89 762.65 867.04 761.98 867.12 C 761.48 868.40 760.96 869.67 760.49 870.98 C 759.82 870.99 758.48 871.00 757.81 871.00 C 757.81 871.49 757.80 872.46 757.79 872.95 C 757.31 872.97 756.34 872.99 755.86 873.01 C 755.85 873.50 755.82 874.50 755.80 874.99 C 754.52 874.98 753.25 874.98 751.99 874.99 C 751.95 875.48 751.88 876.47 751.85 876.97 C 750.56 876.94 749.27 876.93 748.00 876.93 C 747.99 878.22 747.99 879.52 748.00 880.83 C 746.44 880.81 744.89 880.82 743.35 880.83 C 742.77 882.16 742.19 883.51 741.63 884.87 C 740.92 884.80 739.50 884.66 738.79 884.59 C 738.28 885.11 737.25 886.15 736.74 886.67 C 736.21 886.66 735.16 886.66 734.64 886.66 C 733.99 887.98 733.36 889.33 732.73 890.67 C 731.44 890.60 730.16 890.54 728.89 890.49 C 728.37 891.46 727.85 892.43 727.34 893.41 C 725.93 893.45 724.53 893.48 723.14 893.54 C 720.90 895.58 718.62 897.63 717.02 900.25 C 715.31 900.25 713.62 900.26 711.93 900.30 C 711.90 901.56 711.88 902.83 711.87 904.12 C 710.19 904.16 708.51 904.21 706.84 904.29 C 703.98 906.74 699.50 906.53 697.41 909.91 C 695.79 909.96 694.17 909.99 692.57 910.06 C 692.36 910.94 691.94 912.70 691.73 913.58 C 691.50 910.83 691.69 908.02 691.09 905.33 C 690.06 904.22 688.84 903.30 687.70 902.36 C 688.37 896.31 685.00 890.84 685.55 884.81 C 684.28 884.75 683.02 884.70 681.77 884.67 C 681.75 880.90 681.75 877.13 681.80 873.37 C 680.48 872.80 679.17 872.23 677.87 871.68 C 677.84 867.80 678.31 863.77 676.83 860.09 C 675.67 857.06 675.91 853.78 675.87 850.62 C 674.58 850.56 673.28 850.49 672.00 850.46 C 671.91 846.06 672.26 841.66 671.85 837.28 C 670.90 836.12 669.27 835.96 668.00 835.37 C 668.00 832.57 668.06 829.78 668.05 827.00 C 668.45 822.82 665.48 819.23 666.05 815.03 C 666.42 811.70 665.35 808.56 663.87 805.65 C 663.42 805.60 662.54 805.50 662.10 805.45 C 662.15 799.63 662.13 793.81 662.13 788.00 C 660.82 787.99 659.53 787.99 658.24 787.99 C 658.06 780.65 658.64 773.28 657.98 765.96 C 656.03 759.15 656.19 752.03 655.31 745.06 C 655.08 731.02 655.52 716.97 655.30 702.92 C 654.97 695.64 656.94 688.50 656.27 681.21 C 656.76 681.03 657.76 680.67 658.25 680.49 C 658.25 675.00 658.24 669.52 658.24 664.04 C 659.53 663.59 660.82 663.15 662.14 662.75 C 662.13 658.83 662.13 654.91 662.13 650.99 C 663.43 650.02 664.72 649.04 666.02 648.07 C 666.02 645.79 666.02 643.52 666.03 641.26 C 666.68 640.55 667.35 639.85 668.02 639.16 C 668.00 637.52 668.00 635.89 668.00 634.26 C 669.33 633.69 670.66 633.12 672.00 632.56 C 672.00 630.14 671.99 627.73 672.00 625.33 C 673.30 624.78 674.60 624.23 675.92 623.69 C 675.97 622.46 676.03 621.24 676.11 620.03 C 678.07 617.55 679.39 614.62 681.58 612.32 C 681.65 611.13 681.75 609.97 681.83 608.80 C 683.07 608.25 684.31 607.71 685.56 607.18 C 685.61 606.68 685.70 605.69 685.75 605.20 C 686.07 604.69 686.71 603.67 687.02 603.15 C 687.69 601.01 689.40 599.78 691.44 599.07 C 691.45 598.01 691.47 596.95 691.51 595.90 C 692.77 595.84 694.05 595.79 695.33 595.74 C 695.36 595.18 695.42 594.06 695.46 593.50 C 696.23 592.35 697.00 591.19 697.76 590.04 C 698.89 590.00 700.03 589.97 701.18 589.95 C 701.19 588.63 701.20 587.32 701.22 586.02 C 702.25 586.00 703.29 586.00 704.34 586.00 C 705.55 584.15 707.11 582.57 708.96 581.37 C 709.00 581.04 709.06 580.40 709.09 580.08 C 709.57 580.08 710.52 580.08 711.00 580.08 C 710.99 578.80 710.99 577.52 711.00 576.25 C 712.09 576.20 713.19 576.16 714.30 576.12 C 716.35 573.53 718.75 571.21 721.66 569.61 C 721.73 568.59 721.80 567.58 721.89 566.58 C 722.40 566.51 723.42 566.39 723.92 566.32 C 725.93 563.65 728.48 561.43 731.47 559.92 C 731.48 559.19 731.50 557.71 731.51 556.98 C 732.48 556.84 733.46 556.70 734.45 556.58 C 734.44 555.03 734.44 553.48 734.45 551.95 C 735.27 551.92 736.91 551.88 737.73 551.85 C 738.56 550.58 739.42 549.32 740.29 548.08 C 740.27 546.72 740.26 545.37 740.26 544.02 C 741.54 544.01 742.84 544.00 744.15 544.00 C 744.16 543.26 744.18 541.77 744.19 541.03 C 745.37 541.02 746.56 541.02 747.76 541.02 C 748.29 537.58 749.44 534.28 751.05 531.20 C 751.79 531.23 753.26 531.28 754.00 531.31 C 753.99 529.03 753.99 526.76 754.00 524.50 C 755.23 524.49 756.47 524.48 757.71 524.48 C 757.99 522.16 757.65 519.46 759.71 517.83 C 759.80 516.59 759.89 515.36 760.00 514.14 C 761.17 513.28 762.41 512.51 763.48 511.53 C 763.91 509.39 763.78 507.19 763.87 505.03 C 765.13 504.13 766.40 503.24 767.70 502.39 C 767.67 498.49 767.68 494.59 767.67 490.69 C 768.68 490.16 769.69 489.63 770.71 489.11 C 770.69 483.06 769.22 477.11 769.56 471.05 C 769.32 466.63 770.26 462.31 770.62 457.94 C 771.04 455.24 768.50 453.50 767.82 451.11 C 767.47 447.87 767.68 444.61 767.68 441.37 C 766.38 441.32 765.08 441.28 763.80 441.25 C 763.79 439.08 763.79 436.91 763.80 434.74 C 763.37 434.65 762.52 434.46 762.10 434.36 C 761.58 433.04 761.08 431.74 760.57 430.43 C 759.68 429.36 757.93 428.64 758.03 427.05 C 757.74 419.45 758.10 411.83 757.90 404.22 C 756.59 404.20 755.29 404.18 754.00 404.16 C 754.00 398.43 753.99 392.70 754.01 386.97 C 752.68 386.48 751.36 385.97 750.06 385.49 C 750.02 383.84 750.00 382.20 749.97 380.56 C 749.35 378.80 748.83 377.01 748.25 375.25 C 748.18 374.69 748.05 373.56 747.98 373.00 C 746.71 372.99 745.45 372.99 744.19 373.00 C 744.16 371.24 744.14 369.50 744.12 367.75 C 741.48 366.33 739.65 363.96 737.80 361.69 C 735.71 360.98 734.33 359.46 733.79 357.35 C 732.43 357.33 731.08 357.32 729.74 357.32 C 729.07 354.22 728.58 351.09 728.37 347.94 C 727.11 347.47 725.90 347.02 724.66 346.57 C 724.68 344.65 724.71 342.73 724.74 340.81 C 723.48 340.80 722.22 340.78 720.98 340.77 C 720.89 340.29 720.72 339.31 720.64 338.82 C 719.43 337.28 718.35 335.65 717.31 334.00 C 716.82 333.99 715.85 333.99 715.37 333.98 C 714.92 333.49 714.04 332.50 713.60 332.00 C 711.41 332.00 709.24 331.99 707.07 332.00 C 707.05 331.50 707.03 330.50 707.02 330.00 C 706.54 330.00 705.59 329.98 705.11 329.98 C 705.10 329.48 705.06 328.49 705.04 328.00 C 689.68 328.00 674.33 328.00 658.97 328.00 C 654.14 327.95 649.21 328.41 644.51 327.04 C 644.56 326.32 644.66 324.88 644.71 324.17 C 639.58 324.04 634.44 324.08 629.31 324.09 C 628.88 323.60 628.01 322.62 627.58 322.13 C 624.07 322.11 620.53 322.40 617.05 321.90 C 615.85 320.79 614.88 319.48 613.82 318.25 C 610.92 318.24 608.00 318.43 605.11 318.06 C 603.87 317.24 603.67 315.59 602.97 314.39 C 600.68 314.36 598.39 314.34 596.11 314.32 C 595.67 313.83 594.80 312.85 594.37 312.36 C 592.03 312.40 589.69 312.43 587.36 312.48 C 586.80 311.15 586.23 309.82 585.69 308.50 C 583.55 308.51 581.42 308.53 579.29 308.55 C 578.53 307.24 577.77 305.92 577.02 304.61 C 575.28 304.62 573.55 304.63 571.82 304.65 C 571.29 303.75 570.77 302.85 570.25 301.97 C 567.60 301.95 564.95 301.47 563.71 298.84 C 562.04 298.81 560.38 298.80 558.73 298.79 C 558.27 297.52 557.82 296.23 557.40 294.96 C 556.19 294.91 554.99 294.87 553.81 294.83 C 551.49 292.66 548.85 290.89 546.32 289.00 C 544.97 288.99 543.63 288.99 542.31 289.00 C 541.78 287.66 541.24 286.33 540.72 285.00 C 538.62 285.00 536.54 285.00 534.45 285.00 C 533.91 283.69 533.38 282.40 532.85 281.10 C 532.12 281.11 530.66 281.13 529.93 281.13 C 529.21 280.47 528.51 279.82 527.80 279.16 C 526.16 279.17 524.52 279.17 522.88 279.18 C 522.33 277.86 521.77 276.56 521.23 275.26 C 518.96 275.28 516.68 275.31 514.42 275.37 C 514.17 274.86 513.67 273.84 513.41 273.33 C 509.82 272.50 506.03 271.93 503.09 269.51 C 499.67 269.43 496.26 269.43 492.85 269.45 C 491.93 268.13 490.99 266.83 490.05 265.53 C 471.67 265.63 453.29 265.44 434.92 265.61 C 432.93 265.45 432.86 268.18 431.90 269.41 C 427.69 269.46 423.47 269.44 419.26 269.44 C 418.81 269.95 417.89 270.97 417.43 271.48 C 415.09 271.42 412.75 271.38 410.42 271.34 C 409.86 272.62 409.31 273.91 408.76 275.19 C 406.63 275.26 404.47 275.20 402.37 275.56 C 401.60 276.64 401.13 277.90 400.55 279.08 C 398.80 279.16 397.06 279.22 395.33 279.30 C 393.86 280.09 392.38 280.84 390.88 281.55 C 390.73 281.93 390.44 282.68 390.29 283.06 C 389.42 283.06 387.67 283.06 386.80 283.06 C 386.75 283.54 386.64 284.49 386.59 284.97 C 385.30 285.01 384.01 285.05 382.74 285.09 C 381.13 288.27 376.69 287.56 375.31 290.89 C 374.55 290.07 373.80 289.26 373.05 288.46 C 373.06 285.69 373.07 282.93 373.07 280.17 C 371.76 280.15 370.47 280.13 369.17 280.12 C 369.17 277.31 369.17 274.51 369.18 271.72 C 367.96 271.18 366.76 270.65 365.56 270.12 C 365.26 265.68 363.29 261.57 363.07 257.12 C 361.85 256.72 360.65 256.33 359.45 255.92 C 359.44 253.38 359.44 250.83 359.46 248.29 C 358.11 247.73 356.78 247.18 355.45 246.62 C 355.52 244.98 355.58 243.33 355.65 241.69 C 355.14 241.20 354.12 240.22 353.61 239.73 C 353.60 238.76 353.59 237.81 353.59 236.85 C 352.28 235.93 350.98 235.00 349.69 234.05 C 349.69 232.39 349.70 230.72 349.70 229.06 C 346.71 228.57 345.59 226.26 345.40 223.45 C 343.50 221.07 342.06 218.38 340.19 215.98 C 340.08 214.95 339.98 213.91 339.89 212.88 C 338.85 212.87 337.82 212.87 336.79 212.87 C 335.37 209.02 331.26 209.96 328.00 209.88 C 328.00 212.10 327.99 214.32 327.99 216.54 C 326.68 217.05 325.38 217.56 324.08 218.08 C 324.03 225.06 324.16 232.05 324.08 239.03 C 324.13 242.79 322.09 246.20 322.13 249.96 C 322.05 256.27 322.22 262.57 322.10 268.88 C 320.61 270.71 317.97 272.22 318.26 274.93 C 318.15 282.07 318.27 289.21 318.28 296.35 C 317.91 296.58 317.15 297.02 316.77 297.24 C 316.01 298.46 315.23 299.66 314.41 300.84 C 314.32 304.90 314.40 308.95 314.38 313.02 C 314.41 318.69 312.37 324.06 311.20 329.54 C 309.13 331.37 306.96 333.10 304.63 334.59 C 304.63 335.21 304.64 336.45 304.65 337.07 C 303.11 337.45 301.56 337.80 300.01 338.14 C 299.48 339.36 298.96 340.57 298.44 341.80 C 297.50 341.79 296.56 341.79 295.62 341.80 C 293.93 344.33 291.76 346.53 289.23 348.23 C 288.66 349.33 288.11 350.43 287.56 351.55 C 287.10 351.55 286.17 351.54 285.70 351.54 C 284.08 355.88 280.20 358.79 278.48 363.07 C 277.42 363.12 276.37 363.18 275.33 363.25 C 275.30 364.50 275.28 365.76 275.26 367.03 C 272.16 367.05 269.07 367.05 265.97 367.06 C 264.26 365.21 262.61 363.31 261.11 361.29 C 260.29 361.22 259.47 361.17 258.66 361.11 C 257.30 359.84 255.91 358.60 254.54 357.35 C 253.95 357.34 252.75 357.33 252.16 357.33 C 250.74 355.39 249.36 353.43 247.95 351.49 C 246.06 351.48 244.17 351.48 242.28 351.48 C 242.24 350.41 242.19 349.35 242.14 348.29 C 240.43 347.51 238.85 346.49 237.53 345.15 C 235.56 344.27 233.58 343.41 231.60 342.52 C 230.20 341.15 229.03 339.56 227.95 337.93 C 226.52 337.89 225.09 337.85 223.66 337.82 C 222.17 335.55 220.19 333.59 217.29 333.62 C 216.86 333.30 216.02 332.64 215.60 332.31 C 212.80 332.30 210.77 330.88 210.45 328.00 C 208.11 328.00 205.77 328.00 203.44 328.00 C 202.87 326.68 202.31 325.36 201.75 324.05 C 192.43 324.12 183.10 324.06 173.78 324.09 C 173.80 324.81 173.85 326.25 173.88 326.97 C 172.75 327.42 171.62 327.87 170.48 328.32 C 169.37 329.76 168.20 331.15 167.00 332.52 C 166.99 333.01 166.97 333.98 166.96 334.47 C 165.99 335.83 165.01 337.19 164.00 338.53 C 163.99 345.19 164.03 351.85 163.96 358.51 C 163.02 359.47 162.10 360.46 161.18 361.44 C 159.59 364.02 158.96 368.14 161.93 370.00 C 161.98 372.20 162.00 374.41 162.00 376.61 C 162.50 377.05 163.50 377.92 164.00 378.36 C 164.03 388.04 163.94 397.73 164.03 407.41 C 164.48 408.63 164.91 409.86 165.33 411.10 C 165.69 411.13 166.42 411.18 166.78 411.20 C 166.92 411.75 167.19 412.85 167.32 413.40 C 167.93 415.48 168.08 417.70 167.08 419.71 C 166.70 423.36 166.51 427.48 169.85 429.87 C 169.94 435.03 169.89 440.20 169.90 445.37 C 170.73 445.38 172.39 445.39 173.22 445.40 C 174.09 450.20 173.78 455.09 173.78 459.94 C 174.13 459.99 174.82 460.10 175.16 460.15 C 175.99 461.02 176.83 461.90 177.68 462.77 C 177.68 466.31 177.68 469.87 177.67 473.42 C 178.17 473.61 179.16 473.98 179.65 474.17 C 179.62 478.88 179.62 483.59 179.63 488.31 C 180.93 488.32 182.22 488.34 183.52 488.36 C 183.53 493.02 183.55 497.69 183.45 502.35 C 184.76 503.84 186.06 505.34 187.41 506.81 C 187.52 511.41 186.85 516.16 188.24 520.64 C 190.02 525.93 189.24 531.57 189.32 537.04 C 190.63 537.08 191.93 537.14 193.24 537.20 C 193.28 543.46 193.15 549.73 193.34 556.00 C 194.89 557.14 196.40 558.49 196.66 560.52 C 197.98 567.08 196.29 573.87 197.65 580.44 C 200.27 590.70 198.63 601.36 199.10 611.82 C 200.39 612.79 201.67 613.77 202.98 614.75 C 202.98 632.52 203.08 650.31 202.92 668.08 C 201.02 669.90 199.19 672.17 199.13 674.93 C 198.85 680.28 199.30 685.65 199.05 691.02 C 198.99 694.55 196.71 697.53 196.21 700.98 C 195.94 704.11 196.82 707.17 197.26 710.25 C 195.89 711.30 194.56 712.41 193.21 713.49 C 193.25 717.49 193.25 721.48 193.23 725.48 C 191.97 725.49 190.71 725.51 189.46 725.54 C 190.17 731.62 187.00 737.01 186.20 742.89 C 186.15 744.36 184.39 744.80 183.60 745.81 C 183.53 748.48 183.51 751.16 183.50 753.85 C 182.21 753.86 180.93 753.88 179.64 753.91 C 179.63 756.04 179.62 758.19 179.61 760.34 C 178.73 760.79 177.85 761.26 176.97 761.74 C 177.05 764.64 176.01 767.26 173.88 769.24 C 173.83 770.92 173.78 772.61 173.74 774.30 C 172.46 774.30 171.18 774.31 169.91 774.32 C 169.90 776.56 169.90 778.82 169.90 781.08 C 169.17 781.10 167.72 781.13 167.00 781.15 C 166.98 782.50 166.97 783.87 166.96 785.25 C 163.93 786.46 163.70 789.41 163.82 792.28 C 162.89 793.19 161.99 794.12 161.10 795.08 C 160.13 794.67 159.16 794.26 158.20 793.87 C 158.21 793.18 158.24 791.80 158.25 791.11 C 157.95 791.01 157.36 790.82 157.06 790.72 C 155.57 789.47 154.00 788.34 152.38 787.29 C 152.40 785.46 152.41 783.63 152.43 781.83 C 150.42 780.54 148.47 779.16 146.56 777.73 C 146.53 777.29 146.47 776.42 146.43 775.98 C 145.58 775.02 144.71 774.08 143.84 773.14 C 143.28 771.60 142.75 770.04 142.23 768.50 C 141.10 768.47 139.98 768.45 138.85 768.44 C 138.83 767.63 138.77 766.02 138.75 765.22 C 137.46 764.15 136.18 763.08 134.89 762.02 C 134.85 761.46 134.78 760.34 134.74 759.78 C 132.92 758.32 132.95 755.98 132.65 753.90 C 131.43 753.88 130.21 753.87 129.00 753.87 C 129.01 752.31 129.02 750.76 129.04 749.22 C 127.79 748.29 126.53 747.37 125.26 746.49 C 125.06 744.51 125.07 742.31 123.16 741.12 C 123.11 740.23 123.06 739.36 123.02 738.49 C 121.71 738.04 120.42 737.60 119.13 737.15 C 119.15 735.21 119.17 733.28 119.19 731.37 C 117.91 731.35 116.64 731.33 115.37 731.33 C 115.28 729.71 115.19 728.09 115.08 726.48 C 113.28 723.48 113.75 718.73 109.46 718.07 C 109.45 716.34 109.44 714.61 109.43 712.90 C 108.19 712.86 106.94 712.84 105.70 712.83 C 105.54 707.31 104.77 700.79 99.97 697.28 C 99.79 695.70 99.73 694.11 99.37 692.57 C 98.37 691.39 97.10 690.49 95.92 689.52 C 95.85 687.81 95.79 686.10 95.72 684.41 C 91.15 682.34 94.79 675.94 90.05 674.06 C 90.01 671.79 90.00 669.54 90.00 667.29 C 88.66 666.75 87.34 666.21 86.00 665.69 C 86.00 662.96 86.01 660.24 86.00 657.52 C 85.08 656.62 84.17 655.73 83.26 654.84 C 82.98 652.33 82.47 649.87 81.93 647.42 C 81.47 647.38 80.54 647.30 80.08 647.26 C 80.10 643.41 80.10 639.55 80.10 635.70 C 78.80 635.69 77.51 635.68 76.22 635.68 C 76.21 631.80 76.21 627.92 76.20 624.05 C 75.87 624.00 75.21 623.91 74.88 623.87 C 74.09 622.56 73.27 621.27 72.40 620.02 C 72.29 616.54 72.30 613.07 72.33 609.60 C 71.83 609.39 70.82 608.98 70.32 608.77 C 70.40 603.11 70.38 597.45 70.37 591.79 C 69.07 591.75 67.77 591.73 66.48 591.71 C 66.49 584.67 66.45 577.63 66.50 570.60 C 66.00 570.38 64.99 569.94 64.49 569.72 C 64.56 536.25 64.57 502.78 64.49 469.31 C 64.99 469.10 66.00 468.69 66.51 468.49 C 66.45 461.44 66.48 454.39 66.48 447.35 C 67.78 447.32 69.07 447.30 70.37 447.29 C 70.37 441.61 70.41 435.93 70.32 430.25 C 70.83 430.09 71.84 429.75 72.35 429.59 C 73.43 426.28 73.64 422.75 72.36 419.48 C 73.63 418.17 74.92 416.88 76.22 415.60 C 76.21 411.85 76.21 408.09 76.21 404.34 C 77.04 404.36 78.70 404.40 79.53 404.42 C 80.21 400.83 80.14 397.18 80.18 393.55 C 84.67 391.32 81.99 385.13 85.94 382.20 C 86.03 379.15 86.01 376.11 86.01 373.06 C 87.33 373.06 88.65 373.05 89.97 373.06 C 89.98 370.40 90.00 367.75 90.07 365.10 C 94.41 361.31 96.00 355.03 95.99 349.44 C 97.14 348.85 98.34 348.38 99.42 347.66 C 99.79 345.65 99.75 343.59 99.85 341.56 C 101.04 340.80 102.28 340.10 103.38 339.23 C 103.55 337.94 103.68 336.65 103.77 335.36 C 104.39 334.69 105.03 334.03 105.66 333.37 C 105.59 331.76 105.53 330.15 105.47 328.55 C 106.81 327.95 108.14 327.36 109.48 326.78 C 109.46 325.07 109.43 323.38 109.41 321.68 C 110.71 321.12 112.02 320.56 113.33 320.01 C 113.33 318.65 113.33 317.30 113.33 315.95 C 113.98 315.30 114.63 314.66 115.28 314.02 C 115.27 312.80 115.27 311.59 115.26 310.38 C 116.57 309.30 117.86 308.20 119.17 307.12 C 119.17 305.40 119.16 303.70 119.15 301.99 C 120.46 301.93 121.76 301.88 123.07 301.83 C 123.06 300.23 123.05 298.64 123.05 297.05 C 123.49 297.03 124.36 297.01 124.79 297.00 C 124.97 296.33 125.33 295.00 125.51 294.33 C 126.25 292.65 127.46 291.28 128.96 290.24 C 128.98 289.38 129.01 288.53 129.04 287.68 C 130.36 286.78 131.67 285.86 132.96 284.92 C 133.03 283.91 133.10 282.90 133.18 281.90 C 135.14 279.62 136.83 277.13 138.72 274.80 C 138.76 274.00 138.83 272.40 138.87 271.60 C 140.12 271.58 141.37 271.55 142.62 271.53 C 142.66 270.42 142.70 269.30 142.74 268.20 C 143.06 267.77 143.69 266.91 144.01 266.48 C 145.14 264.39 146.70 262.58 148.45 260.98 C 148.48 260.00 148.51 259.02 148.54 258.04 C 149.83 257.97 151.12 257.90 152.42 257.84 C 152.42 256.47 152.43 255.10 152.44 253.74 C 154.88 251.92 157.07 249.81 159.25 247.70 C 159.23 246.53 159.21 245.37 159.20 244.21 C 159.93 244.19 161.39 244.16 162.12 244.14 C 162.13 243.58 162.14 242.44 162.14 241.88 C 164.96 240.53 167.02 238.19 168.96 235.83 C 169.02 235.42 169.15 234.60 169.21 234.19 C 170.80 233.03 171.87 231.39 172.69 229.63 C 173.21 229.58 174.26 229.47 174.78 229.42 C 176.47 226.17 178.73 223.23 181.65 220.99 C 181.69 220.49 181.77 219.49 181.81 218.99 C 182.90 218.90 184.00 218.82 185.11 218.74 C 186.82 215.79 188.89 213.07 191.27 210.62 C 191.36 210.22 191.54 209.41 191.63 209.00 C 192.57 209.00 194.44 209.00 195.38 209.00 C 195.36 207.83 195.34 206.67 195.33 205.51 C 196.67 205.08 198.01 204.63 199.34 204.18 C 199.33 203.62 199.30 202.49 199.28 201.93 C 200.15 201.04 201.03 200.16 201.93 199.30 C 202.87 199.28 203.81 199.27 204.75 199.25 C 205.15 197.94 205.58 196.64 206.01 195.34 C 206.77 195.35 208.27 195.37 209.02 195.38 C 209.01 194.48 209.00 192.69 209.00 191.79 C 210.70 191.30 212.40 190.78 214.09 190.25 C 214.51 189.39 214.92 188.54 215.34 187.69 C 217.49 186.93 219.63 186.16 221.78 185.39 C 221.79 184.21 221.81 183.04 221.83 181.87 C 222.35 181.80 223.39 181.68 223.91 181.62 C 225.84 178.46 229.22 176.88 232.48 175.46 C 232.47 174.93 232.46 173.88 232.46 173.35 C 232.83 173.02 233.56 172.35 233.93 172.02 C 235.17 172.00 236.41 171.98 237.65 171.97 C 239.24 167.71 244.23 166.39 245.77 162.12 C 247.51 162.12 249.25 162.13 251.00 162.14 C 251.00 160.85 251.00 159.55 251.00 158.26 C 252.59 158.24 254.17 158.22 255.77 158.21 C 256.15 157.72 256.91 156.75 257.29 156.26 C 257.86 156.26 259.02 156.27 259.60 156.27 C 260.15 154.96 260.72 153.66 261.28 152.36 C 262.74 152.38 264.19 152.40 265.65 152.42 C 265.71 151.10 265.78 149.80 265.84 148.49 C 267.58 148.50 269.33 148.52 271.08 148.53 C 271.64 147.55 272.21 146.57 272.78 145.60 C 273.96 145.58 275.14 145.56 276.33 145.55 C 276.83 144.60 277.33 143.65 277.84 142.70 C 279.33 142.67 280.83 142.64 282.33 142.62 C 282.30 141.35 282.27 140.08 282.25 138.81 C 284.18 138.80 286.11 138.79 288.05 138.78 C 288.07 138.08 288.12 136.68 288.15 135.97 C 288.70 135.91 289.79 135.78 290.34 135.71 C 291.60 135.30 292.87 134.93 294.14 134.54 C 295.82 132.69 298.36 132.98 300.61 132.76 C 301.14 131.51 301.68 130.25 302.22 129.00 C 304.04 129.00 305.86 129.00 307.68 129.00 C 307.69 128.15 307.70 126.47 307.70 125.62 C 309.95 125.26 312.22 125.05 314.49 124.86 C 314.52 124.41 314.59 123.50 314.63 123.05 C 316.86 123.06 319.10 123.06 321.34 123.07 C 321.34 121.77 321.35 120.47 321.36 119.18 C 323.52 119.18 325.68 119.18 327.85 119.18 C 328.37 117.91 328.89 116.65 329.42 115.39 C 334.31 115.78 338.68 113.15 343.53 113.10 C 344.13 111.87 344.73 110.63 345.33 109.40 C 347.96 109.43 350.60 109.45 353.25 109.47 C 353.82 108.16 354.40 106.86 354.98 105.55 C 357.22 105.56 359.46 105.57 361.71 105.58 C 362.41 104.96 363.12 104.33 363.83 103.71 C 367.75 103.67 372.77 103.87 374.87 99.79 C 377.76 99.72 380.66 99.71 383.56 99.72 C 384.11 98.42 384.67 97.11 385.23 95.81 C 388.82 95.82 392.41 95.82 396.01 95.83 C 396.65 95.22 397.30 94.62 397.95 94.02 C 402.37 93.21 406.86 92.83 411.23 91.73 C 411.71 91.35 412.67 90.57 413.15 90.18 C 418.35 89.66 423.59 90.16 428.80 89.93 C 428.81 88.62 428.83 87.31 428.84 86.00 C 436.28 86.00 443.72 86.00 451.16 86.00 C 451.18 85.50 451.22 84.50 451.24 84.00 Z" />
</svg>
